<svg xmlns="http://www.w3.org/2000/svg" viewBox="0 0 1350 556">
  <g>
    <g>
      <path fill="#FFD200" d="M382.2,335.7c.6.7,1.8,0,1.3-.9l-73.9-128h0s-13.9-24.2-13.9-24.2c-.6-1-1.5-1.1-2.1-1-.5,0-1.4.3-1.8,1.4l-20.1,67.1c-3.2,10.5,4.7,21.1,15.7,21.1h20.2c11.7,0,22.8,5.1,30.5,13.9l44.2,50.7Z"/>
      <path fill="#FFD200" d="M257.8,254.4l15.7-52.3c.3-.9-1-1.5-1.5-.6l-89.7,155.3c-.6,1.1-.2,1.9.3,2.4.5.5,1.2,1,2.4.5h.3c0-.1,79.6-29.4,79.6-29.4,9.5-3.5,13.6-14.8,8.5-23.6l-11.9-20.6c-5.6-9.6-6.9-21.1-3.7-31.8"/>
      <path fill="#FFD200" d="M369,371.5h23.8c1.2,0,1.7-.8,1.9-1.2.2-.4.5-1.3-.2-2.2l-59.9-68.7c-7.4-8.5-20.9-7.2-26.5,2.6l-11.4,19.7c-4.7,8.2-12.2,14.5-21.1,17.7l-83.4,30.5c-.8.3-.6,1.6.3,1.6h176.6Z"/>
    </g>
    <g>
      <path fill="#FFD200" d="M522.2,190.1c-6.5,0-12.3,3.9-14.8,9.8l-75.9,170.8h19.5l21-47.2h81.4c2.1,0,4.1-1.3,4.9-3.2l6.8-15.2h-84.9l40.5-91.2c.6-1.3,2.4-1.3,2.9,0l69.6,156.8h19.5l-75.9-170.7c-2.5-6-8.3-9.9-14.8-9.9Z"/>
      <path fill="#FFD200" d="M880.7,181.1c-53.4,0-96.9,43.4-96.9,96.9s43.4,96.8,96.9,96.8,96.9-43.4,96.9-96.8-43.4-96.9-96.9-96.9ZM960,278c0,43.8-35.6,79.4-79.4,79.4s-79.4-35.6-79.4-79.4,35.6-79.4,79.4-79.4,79.4,35.6,79.4,79.4Z"/>
      <path fill="#FFD200" d="M779,185.6h-21.1l-54.3,80.6c-1.1,1.6-3.8,1.6-4.9,0l-54.3-80.6h-21.1l60.9,90.4c.8,1.2.8,2.7,0,3.9l-60.9,90.4h21.1l54.3-80.6c1.1-1.6,3.8-1.6,4.9,0l54.3,80.6h21.1l-60.9-90.4c-.8-1.2-.8-2.7,0-3.9l60.9-90.4Z"/>
      <path fill="#FFD200" d="M1150.5,185.6v156.2l-113.7-150.6c-3.7-4.6-9.4-7-15.4-6.3-8.5,1-15,8.5-15,17.3v168.2h17.5v-167.2l126.2,167.2h17.8v-184.8h-17.5Z"/>
    </g>
  </g>
</svg>
