<svg xmlns="http://www.w3.org/2000/svg" viewBox="125 125 500 500">
  <rect x="0" y="0" width="750" height="750" fill="#000"/>
  <path fill="#FFD200" d="M551.1,485.1c1.2,1.4,3.4-.2,2.5-1.8l-138.8-240.5h0s-26.2-45.4-26.2-45.4c-1.1-2-2.9-2.1-3.9-2-1,.1-2.6.6-3.3,2.7l-37.8,126.1c-5.9,19.7,8.9,39.6,29.5,39.6h37.9c21.9,0,42.8,9.5,57.2,26l83,95.2Z"/>
  <path fill="#FFD200" d="M317.3,332.5l29.4-98.3c.5-1.7-1.9-2.8-2.8-1.2l-168.4,291.7c-1.1,2-.4,3.6.5,4.6.9,1,2.3,1.9,4.5,1l.5-.2,149.5-55c17.9-6.6,25.6-27.7,16-44.3l-22.3-38.7c-10.4-18.1-13-39.7-7-59.7Z"/>
  <path fill="#FFD200" d="M526.3,552.5h44.7c2.2,0,3.2-1.4,3.6-2.3.4-.8.9-2.5-.5-4.1l-112.6-129c-13.9-15.9-39.3-13.4-49.8,4.8l-21.5,37.1c-8.9,15.4-22.9,27.2-39.6,33.3l-156.6,57.4c-1.6.6-1.2,2.9.5,2.9h331.7Z"/>
</svg>
